<svg xmlns="http://www.w3.org/2000/svg" viewBox="0 0 977 226"><linearGradient id="a" gradientUnits="userSpaceOnUse" x1="918.383" y1="37.934" x2="838.525" y2="159.822"><stop offset="0" stop-color="#5fa098"/><stop offset="1" stop-color="#a1bc31"/></linearGradient><path d="M869.12 5.26c-59.53 0-107.93 48.4-107.93 107.9v76.94c0 17.03 13.93 30.96 30.96 30.96h76.97c59.47 0 107.88-48.4 107.88-107.9S928.6 5.26 869.12 5.26zm59.86 112.91c0 4.05-3.28 7.33-7.33 7.33h-40.23v40.23c0 4.03-3.25 7.3-7.3 7.3h-10.04c-4.05 0-7.33-3.28-7.33-7.3V125.5h-40.2c-4.05 0-7.33-3.28-7.33-7.33v-10.04c0-4.03 3.28-7.3 7.33-7.3h40.2V60.6c0-4.05 3.28-7.33 7.33-7.33h10.04c4.05 0 7.3 3.28 7.3 7.33v40.23h40.23c4.05 0 7.33 3.28 7.33 7.3v10.04z" fill="url(#a)"/><path d="M110.19 215.7c-15.53 3.41-28.92 5.38-45.89 5.38-35.85 0-62.63-15.78-62.63-48.58v-28.68c0-32.81 26.77-48.58 62.63-48.58 16.73 0 30.12 1.97 45.89 5.74l-4.3 14.34c-11.95-2.69-25.57-5.02-41.35-5.02-23.9 0-40.16 10.4-40.16 34.6v26.53c0 24.74 16.25 34.6 40.16 34.6 15.78 0 29.4-2.15 41.35-5.02l4.3 14.69zm6.92-51.09c0-27.25 21.28-40.52 49.96-40.52s49.96 13.45 49.96 40.52v15.95c0 27.07-21.27 40.51-49.96 40.51s-49.96-13.45-49.96-40.51v-15.95zm49.96 41.95c16.73 0 27.97-7.53 27.97-26.89v-14.16c0-19.54-10.76-26.89-27.97-26.89-16.97 0-27.97 7.35-27.97 26.89v14.16c0 19.36 10.76 26.89 27.97 26.89zm63.57-45c0-24.38 21.75-37.47 47.57-37.47 26.29 0 47.33 13.09 47.33 37.47v57.18h-21.99v-56.29c0-15.95-10.52-23.84-25.34-23.84-15.06 0-25.58 7.89-25.58 23.84v56.29h-21.99v-57.18zm108.51 40.69c10.76 2.51 21.04 4.3 31.79 4.3 13.39 0 22.23-5.2 22.23-12.37 0-20.26-55.22-12.37-55.22-44.28 0-14.88 15.53-25.81 41.11-25.81 11 0 21.27 1.43 31.79 4.12l-5.02 13.98c-9.08-2.15-17.45-3.58-26.77-3.58-13.15 0-18.88 4.84-18.88 11.29 0 18.82 55.22 11.11 55.22 43.92 0 13.45-14.11 27.25-44.46 27.25-12.19 0-23.9-1.61-35.85-4.84l4.06-13.98zm86.05-75.82h21.99v56.29c0 15.95 10.52 23.84 25.34 23.84 15.06 0 25.58-7.89 25.58-23.84v-56.29h21.99v57.19c0 24.38-21.51 37.47-47.57 37.47-26.29 0-47.33-13.09-47.33-37.47v-57.19zm113.05-37.65l21.99-3.59v133.55h-21.99V88.78zm46.36 49.48h-15.78l-5.02-11.83h20.8v-26.35l21.75-3.41v29.76h24.14v11.83h-24.14v80.49h-21.75v-80.49zm87.96 24.91h24.14v-5.02c0-12.55-8.13-19.54-23.66-19.54-10.76 0-22.23 1.79-32.51 4.12l-4.78-13.62c11.95-2.87 24.62-5.02 37.29-5.02 27.49 0 45.42 12.91 45.42 34.06v32.99c0 16.85-20.32 29.94-44.94 29.94-26.05 0-45.66-13.09-45.66-29.94 0-18.11 18.17-27.97 44.7-27.97zm.96 43.39c13.87 0 23.19-7.17 23.19-15.42v-15.06h-24.14c-15.77 0-22.23 6.63-22.23 14.88-.01 8.07 8.6 15.6 23.18 15.6z" fill="#434142"/></svg>